%TF.GenerationSoftware,KiCad,Pcbnew,10.0.1*%
%TF.CreationDate,2026-05-14T13:21:37+02:00*%
%TF.ProjectId,ermatic_mini,65726d61-7469-4635-9f6d-696e692e6b69,rev?*%
%TF.SameCoordinates,Original*%
%TF.FileFunction,Profile,NP*%
%FSLAX46Y46*%
G04 Gerber Fmt 4.6, Leading zero omitted, Abs format (unit mm)*
G04 Created by KiCad (PCBNEW 10.0.1) date 2026-05-14 13:21:37*
%MOMM*%
%LPD*%
G01*
G04 APERTURE LIST*
%TA.AperFunction,Profile*%
%ADD10C,0.150000*%
%TD*%
%TA.AperFunction,Profile*%
%ADD11C,0.050000*%
%TD*%
G04 APERTURE END LIST*
D10*
X40000000Y-55000000D02*
G75*
G02*
X45000000Y-50000000I5000000J0D01*
G01*
X40000000Y-145000000D02*
X40000000Y-55000000D01*
X45000000Y-50000000D02*
X135000000Y-50000000D01*
X47000000Y-55000000D02*
G75*
G02*
X43000000Y-55000000I-2000000J0D01*
G01*
X43000000Y-55000000D02*
G75*
G02*
X47000000Y-55000000I2000000J0D01*
G01*
X47000000Y-145000000D02*
G75*
G02*
X43000000Y-145000000I-2000000J0D01*
G01*
X43000000Y-145000000D02*
G75*
G02*
X47000000Y-145000000I2000000J0D01*
G01*
X45000000Y-150000000D02*
G75*
G02*
X40000000Y-145000000I0J5000000D01*
G01*
X135000000Y-50000000D02*
G75*
G02*
X140000000Y-55000000I0J-5000000D01*
G01*
X137000000Y-55000000D02*
G75*
G02*
X133000000Y-55000000I-2000000J0D01*
G01*
X133000000Y-55000000D02*
G75*
G02*
X137000000Y-55000000I2000000J0D01*
G01*
X137000000Y-145000000D02*
G75*
G02*
X133000000Y-145000000I-2000000J0D01*
G01*
X133000000Y-145000000D02*
G75*
G02*
X137000000Y-145000000I2000000J0D01*
G01*
X135000000Y-150000000D02*
X45000000Y-150000000D01*
X140000000Y-55000000D02*
X140000000Y-145000000D01*
X140000000Y-145000000D02*
G75*
G02*
X135000000Y-150000000I-5000000J0D01*
G01*
%TO.C,SW1*%
D11*
X108185000Y-96695000D02*
G75*
G02*
X107185000Y-96695000I-500000J0D01*
G01*
X107185000Y-96695000D02*
G75*
G02*
X108185000Y-96695000I500000J0D01*
G01*
X108185000Y-101095000D02*
G75*
G02*
X107185000Y-101095000I-500000J0D01*
G01*
X107185000Y-101095000D02*
G75*
G02*
X108185000Y-101095000I500000J0D01*
G01*
%TO.C,SW3*%
X104375000Y-96695000D02*
G75*
G02*
X103375000Y-96695000I-500000J0D01*
G01*
X103375000Y-96695000D02*
G75*
G02*
X104375000Y-96695000I500000J0D01*
G01*
X104375000Y-101095000D02*
G75*
G02*
X103375000Y-101095000I-500000J0D01*
G01*
X103375000Y-101095000D02*
G75*
G02*
X104375000Y-101095000I500000J0D01*
G01*
%TD*%
M02*
