%TF.GenerationSoftware,KiCad,Pcbnew,10.0.1*%
%TF.CreationDate,2026-05-14T13:21:37+02:00*%
%TF.ProjectId,ermatic_mini,65726d61-7469-4635-9f6d-696e692e6b69,rev?*%
%TF.SameCoordinates,Original*%
%TF.FileFunction,Soldermask,Bot*%
%TF.FilePolarity,Negative*%
%FSLAX46Y46*%
G04 Gerber Fmt 4.6, Leading zero omitted, Abs format (unit mm)*
G04 Created by KiCad (PCBNEW 10.0.1) date 2026-05-14 13:21:37*
%MOMM*%
%LPD*%
G01*
G04 APERTURE LIST*
G04 Aperture macros list*
%AMRoundRect*
0 Rectangle with rounded corners*
0 $1 Rounding radius*
0 $2 $3 $4 $5 $6 $7 $8 $9 X,Y pos of 4 corners*
0 Add a 4 corners polygon primitive as box body*
4,1,4,$2,$3,$4,$5,$6,$7,$8,$9,$2,$3,0*
0 Add four circle primitives for the rounded corners*
1,1,$1+$1,$2,$3*
1,1,$1+$1,$4,$5*
1,1,$1+$1,$6,$7*
1,1,$1+$1,$8,$9*
0 Add four rect primitives between the rounded corners*
20,1,$1+$1,$2,$3,$4,$5,0*
20,1,$1+$1,$4,$5,$6,$7,0*
20,1,$1+$1,$6,$7,$8,$9,0*
20,1,$1+$1,$8,$9,$2,$3,0*%
G04 Aperture macros list end*
%ADD10C,2.500000*%
%ADD11C,2.400000*%
%ADD12RoundRect,0.250001X-0.949999X-0.949999X0.949999X-0.949999X0.949999X0.949999X-0.949999X0.949999X0*%
%ADD13C,2.000000*%
%ADD14RoundRect,0.250000X0.750000X-0.600000X0.750000X0.600000X-0.750000X0.600000X-0.750000X-0.600000X0*%
%ADD15O,2.000000X1.700000*%
%ADD16C,1.600000*%
%ADD17RoundRect,0.575000X0.575000X0.575000X-0.575000X0.575000X-0.575000X-0.575000X0.575000X-0.575000X0*%
%ADD18C,2.300000*%
%ADD19RoundRect,0.250000X-0.550000X-0.550000X0.550000X-0.550000X0.550000X0.550000X-0.550000X0.550000X0*%
%ADD20C,2.100000*%
%ADD21R,1.600000X1.600000*%
%ADD22C,4.000000*%
%ADD23RoundRect,0.250001X0.949999X0.949999X-0.949999X0.949999X-0.949999X-0.949999X0.949999X-0.949999X0*%
%ADD24RoundRect,0.250000X-0.550000X0.550000X-0.550000X-0.550000X0.550000X-0.550000X0.550000X0.550000X0*%
%ADD25C,1.700000*%
%ADD26R,1.700000X1.700000*%
%ADD27RoundRect,0.250000X0.550000X0.550000X-0.550000X0.550000X-0.550000X-0.550000X0.550000X-0.550000X0*%
%ADD28C,1.400000*%
%ADD29C,0.700000*%
G04 APERTURE END LIST*
D10*
%TO.C,RL1*%
X89750000Y-112900000D03*
X82250000Y-112900000D03*
X82250000Y-136400000D03*
X82250000Y-129400000D03*
X89750000Y-132900000D03*
%TD*%
D11*
%TO.C,J6*%
X102500000Y-145000000D03*
X99000000Y-145000000D03*
D12*
X95500000Y-145000000D03*
%TD*%
D13*
%TO.C,J7*%
X99000000Y-116000000D03*
%TD*%
D10*
%TO.C,RL2*%
X102750000Y-112900000D03*
X95250000Y-112900000D03*
X95250000Y-136400000D03*
X95250000Y-129400000D03*
X102750000Y-132900000D03*
%TD*%
D13*
%TO.C,J5*%
X86000000Y-116000000D03*
%TD*%
D11*
%TO.C,J4*%
X89500000Y-145000000D03*
X86000000Y-145000000D03*
D12*
X82500000Y-145000000D03*
%TD*%
D10*
%TO.C,RL3*%
X115750000Y-112900000D03*
X108250000Y-112900000D03*
X108250000Y-136400000D03*
X108250000Y-129400000D03*
X115750000Y-132900000D03*
%TD*%
D13*
%TO.C,J9*%
X112000000Y-116000000D03*
%TD*%
D11*
%TO.C,J8*%
X115500000Y-145000000D03*
X112000000Y-145000000D03*
D12*
X108500000Y-145000000D03*
%TD*%
D14*
%TO.C,PS1*%
X51445000Y-96990000D03*
D15*
X57445000Y-96990000D03*
X45445000Y-63390000D03*
X63445000Y-63390000D03*
%TD*%
D16*
%TO.C,RV2*%
X70650000Y-84500000D03*
X69350000Y-89500000D03*
%TD*%
D12*
%TO.C,J10*%
X121500000Y-145000000D03*
D11*
X125000000Y-145000000D03*
X128500000Y-145000000D03*
%TD*%
D17*
%TO.C,F2*%
X64500000Y-128000000D03*
X59900000Y-128000000D03*
D18*
X48600000Y-128000000D03*
X44000000Y-128000000D03*
%TD*%
D19*
%TO.C,C3*%
X71590000Y-56350000D03*
D16*
X75090000Y-56350000D03*
%TD*%
D12*
%TO.C,J21*%
X65500000Y-145000000D03*
D11*
X69000000Y-145000000D03*
X72500000Y-145000000D03*
%TD*%
D20*
%TO.C,L3*%
X56985000Y-112230000D03*
X56985000Y-103230000D03*
X48985000Y-103230000D03*
X48985000Y-112230000D03*
%TD*%
D13*
%TO.C,J1*%
X65000000Y-55000000D03*
%TD*%
D21*
%TO.C,J23*%
X123880000Y-69990000D03*
D16*
X123880000Y-72490000D03*
X125880000Y-72490000D03*
X125880000Y-69990000D03*
D22*
X128740000Y-65240000D03*
X128740000Y-77240000D03*
%TD*%
D23*
%TO.C,J2*%
X60000000Y-55000000D03*
D11*
X56500000Y-55000000D03*
X53000000Y-55000000D03*
%TD*%
D24*
%TO.C,U3*%
X98260000Y-95720000D03*
D16*
X95720000Y-95720000D03*
X93180000Y-95720000D03*
X90640000Y-95720000D03*
X88100000Y-95720000D03*
X85560000Y-95720000D03*
X83020000Y-95720000D03*
X80480000Y-95720000D03*
X80480000Y-103340000D03*
X83020000Y-103340000D03*
X85560000Y-103340000D03*
X88100000Y-103340000D03*
X90640000Y-103340000D03*
X93180000Y-103340000D03*
X95720000Y-103340000D03*
X98260000Y-103340000D03*
%TD*%
%TO.C,C13*%
X43810000Y-119850000D03*
X53810000Y-119850000D03*
%TD*%
D25*
%TO.C,J22*%
X118580000Y-63335000D03*
X116040000Y-60795000D03*
X116040000Y-63335000D03*
X113500000Y-60795000D03*
X113500000Y-63335000D03*
X110960000Y-60795000D03*
X110960000Y-63335000D03*
X108420000Y-63335000D03*
X105880000Y-60795000D03*
X105880000Y-63335000D03*
X103340000Y-60795000D03*
X103340000Y-63335000D03*
X100800000Y-60795000D03*
X100800000Y-63335000D03*
X98260000Y-63335000D03*
X95720000Y-60795000D03*
X95720000Y-63335000D03*
X93180000Y-60795000D03*
X93180000Y-63335000D03*
X90640000Y-60795000D03*
X90640000Y-63335000D03*
X88100000Y-63335000D03*
X85560000Y-60795000D03*
X85560000Y-63335000D03*
X83020000Y-60795000D03*
X83020000Y-63335000D03*
X80480000Y-60795000D03*
D26*
X80480000Y-63335000D03*
%TD*%
D19*
%TO.C,C2*%
X71590000Y-65240000D03*
D16*
X75090000Y-65240000D03*
%TD*%
%TO.C,F3*%
X74000000Y-90000000D03*
X74000000Y-85000000D03*
%TD*%
D13*
%TO.C,RV3*%
X62145000Y-121005000D03*
X72145000Y-122505000D03*
%TD*%
D10*
%TO.C,RL4*%
X128750000Y-132900000D03*
X121250000Y-129400000D03*
X121250000Y-136400000D03*
X121250000Y-112900000D03*
X128750000Y-112900000D03*
%TD*%
D13*
%TO.C,J13*%
X125000000Y-116000000D03*
%TD*%
D19*
%TO.C,C8*%
X123277349Y-55080000D03*
D16*
X126777349Y-55080000D03*
%TD*%
D27*
%TO.C,C6*%
X73652651Y-97000000D03*
D16*
X70152651Y-97000000D03*
%TD*%
D27*
%TO.C,C1*%
X73652651Y-78000000D03*
D16*
X70152651Y-78000000D03*
%TD*%
D17*
%TO.C,F1*%
X73000000Y-135500000D03*
X68400000Y-135500000D03*
D18*
X57100000Y-135500000D03*
X52500000Y-135500000D03*
%TD*%
D26*
%TO.C,J24*%
X136995000Y-116040000D03*
D25*
X136995000Y-113500000D03*
X136995000Y-110960000D03*
X136995000Y-108420000D03*
X136995000Y-105880000D03*
%TD*%
D13*
%TO.C,RV1*%
X62145000Y-115925000D03*
X72145000Y-117425000D03*
%TD*%
D28*
X99000000Y-133855000D02*
X95250000Y-130105000D01*
X99000000Y-145000000D02*
X99000000Y-133855000D01*
X95250000Y-130105000D02*
X95250000Y-129400000D01*
X82250000Y-130510000D02*
X82250000Y-129400000D01*
X86000000Y-134260000D02*
X82250000Y-130510000D01*
X86000000Y-145000000D02*
X86000000Y-134260000D01*
X102500000Y-145000000D02*
X102500000Y-133150000D01*
X102500000Y-133150000D02*
X102750000Y-132900000D01*
X95500000Y-145000000D02*
X95500000Y-136650000D01*
X95500000Y-136650000D02*
X95250000Y-136400000D01*
X111750000Y-145000000D02*
X111750000Y-133150000D01*
X115250000Y-133150000D02*
X115500000Y-132900000D01*
X111750000Y-133150000D02*
X108000000Y-129400000D01*
X115250000Y-145000000D02*
X115250000Y-133150000D01*
X108250000Y-145000000D02*
X108250000Y-136650000D01*
X108250000Y-136650000D02*
X108000000Y-136400000D01*
X121500000Y-136882500D02*
X121250000Y-136632500D01*
X121500000Y-145232500D02*
X121500000Y-136882500D01*
X121250000Y-129632500D02*
X125000000Y-133382500D01*
X125000000Y-133382500D02*
X125000000Y-145232500D01*
X128500000Y-145232500D02*
X128500000Y-133382500D01*
X128500000Y-133382500D02*
X128750000Y-133132500D01*
X48730000Y-116040000D02*
X48845000Y-115925000D01*
X48845000Y-115925000D02*
X48925000Y-115925000D01*
D29*
X80040000Y-121315000D02*
X62700000Y-103975000D01*
X62700000Y-103975000D02*
X62700000Y-94450000D01*
X58255000Y-90005000D02*
X41110000Y-90005000D01*
X62700000Y-94450000D02*
X58255000Y-90005000D01*
D28*
X89500000Y-133150000D02*
X89750000Y-132900000D01*
X82500000Y-136650000D02*
X82250000Y-136400000D01*
X82500000Y-145000000D02*
X82500000Y-136650000D01*
X89500000Y-145000000D02*
X89500000Y-133150000D01*
M02*
