M48
; DRILL file KiCad 10.0.1 date 2026-05-14T13:21:33
; FORMAT={-:-/ absolute / metric / decimal}
; #@! TF.CreationDate,2026-05-14T13:21:33+02:00
; #@! TF.GenerationSoftware,Kicad,Pcbnew,10.0.1
; #@! TF.FileFunction,Plated,1,2,PTH
FMAT,2
METRIC
; #@! TA.AperFunction,Plated,PTH,ViaDrill
T1C0.400
; #@! TA.AperFunction,Plated,PTH,ComponentDrill
T2C0.600
; #@! TA.AperFunction,Plated,PTH,ComponentDrill
T3C0.800
; #@! TA.AperFunction,Plated,PTH,ComponentDrill
T4C0.950
; #@! TA.AperFunction,Plated,PTH,ComponentDrill
T5C1.000
; #@! TA.AperFunction,Plated,PTH,ComponentDrill
T6C1.050
; #@! TA.AperFunction,Plated,PTH,ComponentDrill
T7C1.200
; #@! TA.AperFunction,Plated,PTH,ComponentDrill
T8C1.300
; #@! TA.AperFunction,Plated,PTH,ComponentDrill
T9C2.300
%
G90
G05
T1
X50.5Y-74.5
X51.5Y-75.5
X53.0Y-77.0
X54.0Y-78.0
X76.67Y-79.21
X76.67Y-80.48
X76.67Y-81.75
X76.67Y-101.435
X76.67Y-103.34
X76.67Y-105.245
X76.67Y-107.42
X77.94Y-81.75
X79.21Y-82.385
X83.02Y-76.035
X83.02Y-77.94
X83.02Y-79.845
X83.02Y-83.02
X83.02Y-84.925
X83.02Y-86.83
X86.195Y-53.81
X87.465Y-81.115
X88.1Y-53.81
X92.545Y-85.56
X92.545Y-88.1
X96.355Y-53.81
X98.26Y-53.81
X101.435Y-85.56
X102.705Y-84.29
X103.975Y-86.335
X104.61Y-90.64
X106.515Y-53.81
X106.515Y-86.335
X107.785Y-89.37
X108.42Y-53.81
X109.055Y-88.1
X110.325Y-86.83
X111.595Y-72.225
X112.23Y-95.085
X112.66Y-78.575
X114.135Y-78.575
X114.135Y-103.975
X115.405Y-82.385
X116.675Y-53.81
X116.68Y-80.975
X118.58Y-53.81
X119.85Y-81.115
X129.375Y-95.085
X130.645Y-97.625
X130.802Y-105.722
T2
X69.35Y-89.5
X70.65Y-84.5
T3
X43.81Y-119.85
X53.81Y-119.85
X70.153Y-78.0
X70.153Y-97.0
X71.59Y-56.35
X71.59Y-65.24
X73.653Y-78.0
X73.653Y-97.0
X74.0Y-85.0
X74.0Y-90.0
X75.09Y-56.35
X75.09Y-65.24
X80.48Y-95.72
X80.48Y-103.34
X83.02Y-95.72
X83.02Y-103.34
X85.56Y-95.72
X85.56Y-103.34
X88.1Y-95.72
X88.1Y-103.34
X90.64Y-95.72
X90.64Y-103.34
X93.18Y-95.72
X93.18Y-103.34
X95.72Y-95.72
X95.72Y-103.34
X98.26Y-95.72
X98.26Y-103.34
X123.277Y-55.08
X126.777Y-55.08
T4
X123.88Y-69.99
X123.88Y-72.49
X125.88Y-69.99
X125.88Y-72.49
T5
X45.445Y-63.39
X51.445Y-96.99
X57.445Y-96.99
X62.145Y-115.925
X62.145Y-121.005
X63.445Y-63.39
X65.0Y-55.0
X72.145Y-117.425
X72.145Y-122.505
X80.48Y-60.795
X80.48Y-63.335
X83.02Y-60.795
X83.02Y-63.335
X85.56Y-60.795
X85.56Y-63.335
X86.0Y-116.0
X88.1Y-63.335
X90.64Y-60.795
X90.64Y-63.335
X93.18Y-60.795
X93.18Y-63.335
X95.72Y-60.795
X95.72Y-63.335
X98.26Y-63.335
X99.0Y-116.0
X100.8Y-60.795
X100.8Y-63.335
X103.34Y-60.795
X103.34Y-63.335
X105.88Y-60.795
X105.88Y-63.335
X108.42Y-63.335
X110.96Y-60.795
X110.96Y-63.335
X112.0Y-116.0
X113.5Y-60.795
X113.5Y-63.335
X116.04Y-60.795
X116.04Y-63.335
X118.58Y-63.335
X125.0Y-116.0
X136.995Y-105.88
X136.995Y-108.42
X136.995Y-110.96
X136.995Y-113.5
X136.995Y-116.04
T6
X48.985Y-103.23
X48.985Y-112.23
X56.985Y-103.23
X56.985Y-112.23
T7
X53.0Y-55.0
X56.5Y-55.0
X60.0Y-55.0
X65.5Y-145.0
X69.0Y-145.0
X72.5Y-145.0
X82.5Y-145.0
X86.0Y-145.0
X89.5Y-145.0
X95.5Y-145.0
X99.0Y-145.0
X102.5Y-145.0
X108.5Y-145.0
X112.0Y-145.0
X115.5Y-145.0
X121.5Y-145.0
X125.0Y-145.0
X128.5Y-145.0
T8
X44.0Y-128.0
X48.6Y-128.0
X52.5Y-135.5
X57.1Y-135.5
X59.9Y-128.0
X64.5Y-128.0
X68.4Y-135.5
X73.0Y-135.5
X82.25Y-112.9
X82.25Y-129.4
X82.25Y-136.4
X89.75Y-112.9
X89.75Y-132.9
X95.25Y-112.9
X95.25Y-129.4
X95.25Y-136.4
X102.75Y-112.9
X102.75Y-132.9
X108.25Y-112.9
X108.25Y-129.4
X108.25Y-136.4
X115.75Y-112.9
X115.75Y-132.9
X121.25Y-112.9
X121.25Y-129.4
X121.25Y-136.4
X128.75Y-112.9
X128.75Y-132.9
T9
X128.74Y-65.24
X128.74Y-77.24
M30
